<mxfile host="app.diagrams.net" agent="Mozilla/5.0 (Windows NT 10.0; Win64; x64) AppleWebKit/537.36 (KHTML, like Gecko) Chrome/132.0.0.0 Safari/537.36" version="26.0.8">
  <diagram id="yPxyJZ8AM_hMuL3Unpa9" name="complex gitflow">
    <mxGraphModel dx="1195" dy="658" grid="1" gridSize="10" guides="1" tooltips="1" connect="1" arrows="1" fold="1" page="1" pageScale="1" pageWidth="1100" pageHeight="850" math="0" shadow="0">
      <root>
        <mxCell id="0" />
        <mxCell id="1" parent="0" />
        <mxCell id="uWUnNED6HEl2aK5fdaIb-7" value="Hotfix Commit" style="text;html=1;strokeColor=none;fillColor=none;align=center;verticalAlign=middle;whiteSpace=wrap;overflow=hidden;" parent="1" vertex="1">
          <mxGeometry x="397.25" y="290" width="80" height="30" as="geometry" />
        </mxCell>
        <mxCell id="-gOCYcz9y2R_TqC1MYeh-145" value="" style="edgeStyle=orthogonalEdgeStyle;rounded=0;orthogonalLoop=1;jettySize=auto;html=1;entryX=0;entryY=0.5;entryDx=0;entryDy=0;entryPerimeter=0;strokeColor=default;strokeWidth=2;align=center;verticalAlign=middle;fontFamily=Helvetica;fontSize=11;fontColor=default;labelBackgroundColor=default;endArrow=classic;" edge="1" parent="1" source="uWUnNED6HEl2aK5fdaIb-10" target="-gOCYcz9y2R_TqC1MYeh-14">
          <mxGeometry relative="1" as="geometry">
            <mxPoint x="387.25" y="211" as="targetPoint" />
          </mxGeometry>
        </mxCell>
        <mxCell id="uWUnNED6HEl2aK5fdaIb-10" value="" style="verticalLabelPosition=bottom;verticalAlign=top;html=1;strokeWidth=4;shape=mxgraph.flowchart.on-page_reference;plain-blue;gradientColor=none;fillColor=#B5E3Fe;strokeColor=#000000;" parent="1" vertex="1">
          <mxGeometry x="262.25" y="196" width="30" height="30" as="geometry" />
        </mxCell>
        <mxCell id="-gOCYcz9y2R_TqC1MYeh-155" value="" style="edgeStyle=orthogonalEdgeStyle;rounded=0;orthogonalLoop=1;jettySize=auto;html=1;strokeColor=default;strokeWidth=2;align=center;verticalAlign=middle;fontFamily=Helvetica;fontSize=11;fontColor=default;labelBackgroundColor=default;endArrow=classic;" edge="1" parent="1" source="uWUnNED6HEl2aK5fdaIb-11" target="uWUnNED6HEl2aK5fdaIb-109">
          <mxGeometry relative="1" as="geometry">
            <mxPoint x="851.75" y="211" as="targetPoint" />
          </mxGeometry>
        </mxCell>
        <mxCell id="uWUnNED6HEl2aK5fdaIb-11" value="" style="verticalLabelPosition=bottom;verticalAlign=top;html=1;strokeWidth=4;shape=mxgraph.flowchart.on-page_reference;plain-blue;gradientColor=none;strokeColor=#000000;fillColor=#B5E3FE;" parent="1" vertex="1">
          <mxGeometry x="726.75" y="196" width="30" height="30" as="geometry" />
        </mxCell>
        <mxCell id="uWUnNED6HEl2aK5fdaIb-109" value="" style="verticalLabelPosition=bottom;verticalAlign=top;html=1;strokeWidth=4;shape=mxgraph.flowchart.on-page_reference;plain-blue;gradientColor=none;strokeColor=#33001A;fillColor=#B5E3FE;" parent="1" vertex="1">
          <mxGeometry x="880" y="196" width="30" height="30" as="geometry" />
        </mxCell>
        <mxCell id="uWUnNED6HEl2aK5fdaIb-13" value="main" style="text;html=1;strokeColor=none;fillColor=none;align=center;verticalAlign=middle;whiteSpace=wrap;overflow=hidden;fontSize=14;fontStyle=1;fontFamily=Courier New;" parent="1" vertex="1">
          <mxGeometry x="83" y="190" width="50" height="42" as="geometry" />
        </mxCell>
        <mxCell id="uWUnNED6HEl2aK5fdaIb-15" value="" style="verticalLabelPosition=bottom;verticalAlign=top;html=1;strokeWidth=4;shape=mxgraph.flowchart.on-page_reference;plain-purple;gradientColor=none;strokeColor=#000000;fillColor=#D5E8D4;" parent="1" vertex="1">
          <mxGeometry x="498.5" y="345" width="30" height="30" as="geometry" />
        </mxCell>
        <mxCell id="uWUnNED6HEl2aK5fdaIb-17" value="" style="verticalLabelPosition=bottom;verticalAlign=top;html=1;strokeWidth=4;shape=mxgraph.flowchart.on-page_reference;plain-purple;gradientColor=none;strokeColor=#000000;fillColor=#D5E8D4;" parent="1" vertex="1">
          <mxGeometry x="565" y="345" width="30" height="30" as="geometry" />
        </mxCell>
        <mxCell id="uWUnNED6HEl2aK5fdaIb-19" value="" style="verticalLabelPosition=bottom;verticalAlign=top;html=1;strokeWidth=4;shape=mxgraph.flowchart.on-page_reference;plain-purple;gradientColor=none;strokeColor=#000000;fillColor=#D5E8D4;" parent="1" vertex="1">
          <mxGeometry x="630.25" y="345" width="30" height="30" as="geometry" />
        </mxCell>
        <mxCell id="uWUnNED6HEl2aK5fdaIb-20" value="1.0-release" style="text;html=1;strokeColor=none;fillColor=none;align=left;verticalAlign=middle;whiteSpace=wrap;overflow=hidden;fontSize=14;fontStyle=1;fontFamily=Courier New;" parent="1" vertex="1">
          <mxGeometry x="88.75" y="355" width="191.25" height="20" as="geometry" />
        </mxCell>
        <mxCell id="-gOCYcz9y2R_TqC1MYeh-123" value="" style="edgeStyle=orthogonalEdgeStyle;rounded=0;orthogonalLoop=1;jettySize=auto;html=1;entryX=0;entryY=0.5;entryDx=0;entryDy=0;entryPerimeter=0;strokeWidth=2;strokeColor=default;align=center;verticalAlign=middle;fontFamily=Helvetica;fontSize=11;fontColor=default;labelBackgroundColor=default;endArrow=classic;" edge="1" parent="1" source="uWUnNED6HEl2aK5fdaIb-69" target="-gOCYcz9y2R_TqC1MYeh-24">
          <mxGeometry relative="1" as="geometry" />
        </mxCell>
        <mxCell id="uWUnNED6HEl2aK5fdaIb-69" value="" style="verticalLabelPosition=bottom;verticalAlign=top;html=1;strokeWidth=4;shape=mxgraph.flowchart.on-page_reference;plain-purple;gradientColor=none;strokeColor=#000000;fillColor=#FFFF33;" parent="1" vertex="1">
          <mxGeometry x="299.25" y="430" width="30" height="30" as="geometry" />
        </mxCell>
        <mxCell id="-gOCYcz9y2R_TqC1MYeh-119" value="" style="edgeStyle=orthogonalEdgeStyle;rounded=0;orthogonalLoop=1;jettySize=auto;html=1;strokeWidth=2;strokeColor=default;align=center;verticalAlign=middle;fontFamily=Helvetica;fontSize=11;fontColor=default;labelBackgroundColor=default;endArrow=classic;" edge="1" parent="1" source="uWUnNED6HEl2aK5fdaIb-70" target="uWUnNED6HEl2aK5fdaIb-77">
          <mxGeometry relative="1" as="geometry" />
        </mxCell>
        <mxCell id="uWUnNED6HEl2aK5fdaIb-70" value="" style="verticalLabelPosition=bottom;verticalAlign=top;html=1;strokeWidth=4;shape=mxgraph.flowchart.on-page_reference;plain-purple;gradientColor=none;strokeColor=#000000;fillColor=#FFFF33;align=center;fontFamily=Helvetica;fontSize=12;fontColor=default;" parent="1" vertex="1">
          <mxGeometry x="545.25" y="430" width="30" height="30" as="geometry" />
        </mxCell>
        <mxCell id="-gOCYcz9y2R_TqC1MYeh-115" value="" style="edgeStyle=orthogonalEdgeStyle;rounded=0;orthogonalLoop=1;jettySize=auto;html=1;" edge="1" parent="1" source="uWUnNED6HEl2aK5fdaIb-77" target="-gOCYcz9y2R_TqC1MYeh-55">
          <mxGeometry relative="1" as="geometry" />
        </mxCell>
        <mxCell id="uWUnNED6HEl2aK5fdaIb-77" value="" style="verticalLabelPosition=bottom;verticalAlign=top;html=1;strokeWidth=4;shape=mxgraph.flowchart.on-page_reference;plain-purple;gradientColor=none;strokeColor=#000000;fillColor=#FFFF33;align=center;fontFamily=Helvetica;fontSize=12;fontColor=default;" parent="1" vertex="1">
          <mxGeometry x="610" y="430" width="30" height="30" as="geometry" />
        </mxCell>
        <mxCell id="uWUnNED6HEl2aK5fdaIb-95" value="" style="verticalLabelPosition=bottom;verticalAlign=top;html=1;strokeWidth=4;shape=mxgraph.flowchart.on-page_reference;plain-purple;gradientColor=none;strokeColor=#000000;fillColor=#FFFF33;align=center;fontFamily=Helvetica;fontSize=12;fontColor=default;" parent="1" vertex="1">
          <mxGeometry x="870" y="430" width="30" height="30" as="geometry" />
        </mxCell>
        <mxCell id="uWUnNED6HEl2aK5fdaIb-76" value="Dev" style="text;html=1;strokeColor=none;fillColor=none;align=left;verticalAlign=middle;whiteSpace=wrap;overflow=hidden;fontSize=14;fontStyle=1;fontFamily=Courier New;" parent="1" vertex="1">
          <mxGeometry x="87.75" y="433" width="91" height="20" as="geometry" />
        </mxCell>
        <mxCell id="uWUnNED6HEl2aK5fdaIb-84" value="" style="verticalLabelPosition=bottom;verticalAlign=top;html=1;strokeWidth=4;shape=mxgraph.flowchart.on-page_reference;plain-purple;gradientColor=none;strokeColor=#000000;fillColor=#FF3399;align=center;fontFamily=Helvetica;fontSize=12;fontColor=default;" parent="1" vertex="1">
          <mxGeometry x="560" y="504" width="30" height="30" as="geometry" />
        </mxCell>
        <mxCell id="uWUnNED6HEl2aK5fdaIb-86" value="user-dashboard" style="text;html=1;strokeColor=none;fillColor=none;align=left;verticalAlign=middle;whiteSpace=wrap;overflow=hidden;fontSize=14;fontStyle=1;fontFamily=Courier New;" parent="1" vertex="1">
          <mxGeometry x="87.5" y="514" width="240" height="20" as="geometry" />
        </mxCell>
        <mxCell id="uWUnNED6HEl2aK5fdaIb-87" value="The development or sprint branch" style="text;html=1;strokeColor=none;fillColor=none;align=left;verticalAlign=middle;whiteSpace=wrap;overflow=hidden;fontSize=14;fontStyle=0;fontColor=#009900;" parent="1" vertex="1">
          <mxGeometry x="85.75" y="453" width="240" height="20" as="geometry" />
        </mxCell>
        <mxCell id="uWUnNED6HEl2aK5fdaIb-88" value="Your feature branch" style="text;html=1;strokeColor=none;fillColor=none;align=left;verticalAlign=middle;whiteSpace=wrap;overflow=hidden;fontSize=14;fontStyle=0;fontColor=#009900;" parent="1" vertex="1">
          <mxGeometry x="85.75" y="534" width="240" height="20" as="geometry" />
        </mxCell>
        <mxCell id="uWUnNED6HEl2aK5fdaIb-89" value="The release branch" style="text;html=1;strokeColor=none;fillColor=none;align=left;verticalAlign=middle;whiteSpace=wrap;overflow=hidden;fontSize=14;fontStyle=0;fontColor=#009900;" parent="1" vertex="1">
          <mxGeometry x="83" y="375" width="240" height="20" as="geometry" />
        </mxCell>
        <mxCell id="uWUnNED6HEl2aK5fdaIb-90" value="The main branch&lt;br&gt;" style="text;html=1;strokeColor=none;fillColor=none;align=left;verticalAlign=middle;whiteSpace=wrap;overflow=hidden;fontSize=14;fontStyle=0;fontColor=#009900;" parent="1" vertex="1">
          <mxGeometry x="88.25" y="220" width="146.75" height="20" as="geometry" />
        </mxCell>
        <mxCell id="uWUnNED6HEl2aK5fdaIb-91" value="" style="endArrow=classic;html=1;strokeWidth=1;fontFamily=Courier New;fontColor=#009900;" parent="1" edge="1">
          <mxGeometry width="50" height="50" relative="1" as="geometry">
            <mxPoint x="214.5" y="523.5799999999999" as="sourcePoint" />
            <mxPoint x="364.5" y="524.0799999999999" as="targetPoint" />
          </mxGeometry>
        </mxCell>
        <mxCell id="uWUnNED6HEl2aK5fdaIb-92" value="" style="endArrow=classic;html=1;strokeWidth=1;fontFamily=Courier New;fontColor=#009900;" parent="1" edge="1">
          <mxGeometry width="50" height="50" relative="1" as="geometry">
            <mxPoint x="186.75" y="443" as="sourcePoint" />
            <mxPoint x="280" y="443" as="targetPoint" />
          </mxGeometry>
        </mxCell>
        <mxCell id="uWUnNED6HEl2aK5fdaIb-93" value="" style="endArrow=classic;html=1;strokeWidth=1;fontFamily=Courier New;fontColor=#009900;" parent="1" edge="1">
          <mxGeometry width="50" height="50" relative="1" as="geometry">
            <mxPoint x="216.75" y="365" as="sourcePoint" />
            <mxPoint x="260" y="365" as="targetPoint" />
          </mxGeometry>
        </mxCell>
        <mxCell id="uWUnNED6HEl2aK5fdaIb-101" value="Tag: 1.0" style="text;html=1;strokeColor=none;fillColor=none;align=center;verticalAlign=middle;whiteSpace=wrap;overflow=hidden;fontSize=14;" parent="1" vertex="1">
          <mxGeometry x="685.25" y="170" width="110" height="20" as="geometry" />
        </mxCell>
        <mxCell id="uWUnNED6HEl2aK5fdaIb-103" value="Tag: 0.1" style="text;html=1;strokeColor=none;fillColor=none;align=center;verticalAlign=middle;whiteSpace=wrap;overflow=hidden;fontSize=14;" parent="1" vertex="1">
          <mxGeometry x="242.25" y="170" width="70" height="20" as="geometry" />
        </mxCell>
        <mxCell id="uWUnNED6HEl2aK5fdaIb-106" value="" style="verticalLabelPosition=bottom;verticalAlign=top;html=1;strokeWidth=4;shape=mxgraph.flowchart.on-page_reference;plain-purple;gradientColor=none;strokeColor=#000000;fillColor=#D5E8D4;" parent="1" vertex="1">
          <mxGeometry x="820" y="345" width="30" height="30" as="geometry" />
        </mxCell>
        <mxCell id="uWUnNED6HEl2aK5fdaIb-116" value="Tag: 1.1" style="text;html=1;strokeColor=none;fillColor=none;align=center;verticalAlign=middle;whiteSpace=wrap;overflow=hidden;fontSize=14;" parent="1" vertex="1">
          <mxGeometry x="840" y="170" width="110" height="20" as="geometry" />
        </mxCell>
        <mxCell id="fSnZ5vnYTslC5NarKmr_-9" value="" style="edgeStyle=orthogonalEdgeStyle;rounded=0;orthogonalLoop=1;jettySize=auto;html=1;fontSize=12;fontColor=#000000;entryX=0;entryY=0.5;entryDx=0;entryDy=0;" parent="1" source="fSnZ5vnYTslC5NarKmr_-8" target="uWUnNED6HEl2aK5fdaIb-103" edge="1">
          <mxGeometry relative="1" as="geometry">
            <mxPoint x="222.25" y="180" as="targetPoint" />
            <Array as="points">
              <mxPoint x="222.25" y="180" />
              <mxPoint x="222.25" y="180" />
            </Array>
          </mxGeometry>
        </mxCell>
        <mxCell id="fSnZ5vnYTslC5NarKmr_-8" value="&lt;span style=&quot;text-align: center; font-size: 11px;&quot;&gt;Each tag represents a production release.&lt;/span&gt;" style="text;html=1;strokeColor=none;fillColor=none;align=left;verticalAlign=middle;whiteSpace=wrap;overflow=hidden;fontSize=11;fontStyle=0;fontColor=#000000;" parent="1" vertex="1">
          <mxGeometry x="94.5" y="158" width="120" height="38" as="geometry" />
        </mxCell>
        <UserObject label="Wouessi - Employee Management System ( EMS ) Git Workflow" link="https://nvie.com/posts/a-successful-git-branching-model/" id="9hBKPDzoitwpIBdzFDQ7-2">
          <mxCell style="text;whiteSpace=wrap;html=1;fontStyle=1;fontSize=16;" parent="1" vertex="1">
            <mxGeometry x="83" y="118" width="855.5" height="40" as="geometry" />
          </mxCell>
        </UserObject>
        <mxCell id="9hBKPDzoitwpIBdzFDQ7-61" value="Tag: 0.2" style="text;html=1;strokeColor=none;fillColor=none;align=center;verticalAlign=middle;whiteSpace=wrap;overflow=hidden;fontSize=14;" parent="1" vertex="1">
          <mxGeometry x="428.5" y="170" width="70" height="20" as="geometry" />
        </mxCell>
        <mxCell id="-gOCYcz9y2R_TqC1MYeh-131" value="" style="edgeStyle=orthogonalEdgeStyle;rounded=0;orthogonalLoop=1;jettySize=auto;html=1;strokeColor=default;strokeWidth=2;align=center;verticalAlign=middle;fontFamily=Helvetica;fontSize=11;fontColor=default;labelBackgroundColor=default;endArrow=classic;" edge="1" parent="1" source="uWUnNED6HEl2aK5fdaIb-82" target="-gOCYcz9y2R_TqC1MYeh-28">
          <mxGeometry relative="1" as="geometry" />
        </mxCell>
        <mxCell id="uWUnNED6HEl2aK5fdaIb-82" value="" style="verticalLabelPosition=bottom;verticalAlign=top;html=1;strokeWidth=4;shape=mxgraph.flowchart.on-page_reference;plain-purple;gradientColor=none;strokeColor=#000000;fillColor=#FF3399;" parent="1" vertex="1">
          <mxGeometry x="440" y="504" width="30" height="30" as="geometry" />
        </mxCell>
        <mxCell id="-gOCYcz9y2R_TqC1MYeh-7" value="HotFixes" style="text;html=1;strokeColor=none;fillColor=none;align=left;verticalAlign=middle;whiteSpace=wrap;overflow=hidden;fontSize=14;fontStyle=1;fontFamily=Courier New;" vertex="1" parent="1">
          <mxGeometry x="85.75" y="280" width="191.25" height="20" as="geometry" />
        </mxCell>
        <mxCell id="-gOCYcz9y2R_TqC1MYeh-8" value="hotfix branch" style="text;html=1;strokeColor=none;fillColor=none;align=left;verticalAlign=middle;whiteSpace=wrap;overflow=hidden;fontSize=14;fontStyle=0;fontColor=#009900;" vertex="1" parent="1">
          <mxGeometry x="83" y="300" width="240" height="20" as="geometry" />
        </mxCell>
        <mxCell id="-gOCYcz9y2R_TqC1MYeh-9" value="" style="endArrow=classic;html=1;strokeWidth=1;fontFamily=Courier New;fontColor=#009900;" edge="1" parent="1">
          <mxGeometry width="50" height="50" relative="1" as="geometry">
            <mxPoint x="185.88" y="289.58" as="sourcePoint" />
            <mxPoint x="229.13" y="289.58" as="targetPoint" />
          </mxGeometry>
        </mxCell>
        <mxCell id="-gOCYcz9y2R_TqC1MYeh-11" value="" style="verticalLabelPosition=bottom;verticalAlign=top;html=1;strokeWidth=4;shape=mxgraph.flowchart.on-page_reference;plain-blue;gradientColor=#EA6B66;strokeColor=#B85450;fillColor=#F8CECC;" vertex="1" parent="1">
          <mxGeometry x="367.25" y="270" width="30" height="30" as="geometry" />
        </mxCell>
        <mxCell id="-gOCYcz9y2R_TqC1MYeh-148" value="" style="edgeStyle=orthogonalEdgeStyle;rounded=0;orthogonalLoop=1;jettySize=auto;html=1;entryX=0;entryY=0.5;entryDx=0;entryDy=0;entryPerimeter=0;strokeColor=default;strokeWidth=2;align=center;verticalAlign=middle;fontFamily=Helvetica;fontSize=11;fontColor=default;labelBackgroundColor=default;endArrow=classic;" edge="1" parent="1" source="-gOCYcz9y2R_TqC1MYeh-14" target="uWUnNED6HEl2aK5fdaIb-11">
          <mxGeometry relative="1" as="geometry">
            <mxPoint x="577.25" y="211" as="targetPoint" />
          </mxGeometry>
        </mxCell>
        <mxCell id="-gOCYcz9y2R_TqC1MYeh-14" value="" style="verticalLabelPosition=bottom;verticalAlign=top;html=1;strokeWidth=4;shape=mxgraph.flowchart.on-page_reference;plain-blue;gradientColor=none;strokeColor=#000000;fillColor=#B5E3FE;" vertex="1" parent="1">
          <mxGeometry x="452.25" y="196" width="30" height="30" as="geometry" />
        </mxCell>
        <mxCell id="-gOCYcz9y2R_TqC1MYeh-20" value="user-dashboard" style="text;html=1;strokeColor=none;fillColor=none;align=left;verticalAlign=middle;whiteSpace=wrap;overflow=hidden;fontSize=14;fontStyle=1;fontFamily=Courier New;" vertex="1" parent="1">
          <mxGeometry x="89.25" y="575" width="240" height="20" as="geometry" />
        </mxCell>
        <mxCell id="-gOCYcz9y2R_TqC1MYeh-21" value="Your feature branch" style="text;html=1;strokeColor=none;fillColor=none;align=left;verticalAlign=middle;whiteSpace=wrap;overflow=hidden;fontSize=14;fontStyle=0;fontColor=#009900;" vertex="1" parent="1">
          <mxGeometry x="87.5" y="595" width="240" height="20" as="geometry" />
        </mxCell>
        <mxCell id="-gOCYcz9y2R_TqC1MYeh-22" value="" style="endArrow=classic;html=1;strokeWidth=1;fontFamily=Courier New;fontColor=#009900;" edge="1" parent="1">
          <mxGeometry width="50" height="50" relative="1" as="geometry">
            <mxPoint x="216.25" y="584.5799999999999" as="sourcePoint" />
            <mxPoint x="366.25" y="585.0799999999999" as="targetPoint" />
          </mxGeometry>
        </mxCell>
        <mxCell id="-gOCYcz9y2R_TqC1MYeh-128" value="" style="edgeStyle=orthogonalEdgeStyle;rounded=0;orthogonalLoop=1;jettySize=auto;html=1;strokeColor=default;strokeWidth=2;align=center;verticalAlign=middle;fontFamily=Helvetica;fontSize=11;fontColor=default;labelBackgroundColor=default;endArrow=classic;" edge="1" parent="1" source="-gOCYcz9y2R_TqC1MYeh-23" target="-gOCYcz9y2R_TqC1MYeh-19">
          <mxGeometry relative="1" as="geometry" />
        </mxCell>
        <mxCell id="-gOCYcz9y2R_TqC1MYeh-23" value="" style="verticalLabelPosition=bottom;verticalAlign=top;html=1;strokeWidth=4;shape=mxgraph.flowchart.on-page_reference;plain-purple;gradientColor=none;strokeColor=#000000;fillColor=#FF3399;align=center;fontFamily=Helvetica;fontSize=12;fontColor=default;" vertex="1" parent="1">
          <mxGeometry x="428.5" y="565" width="30" height="30" as="geometry" />
        </mxCell>
        <mxCell id="-gOCYcz9y2R_TqC1MYeh-122" value="" style="edgeStyle=orthogonalEdgeStyle;rounded=0;orthogonalLoop=1;jettySize=auto;html=1;strokeColor=default;strokeWidth=2;align=center;verticalAlign=middle;fontFamily=Helvetica;fontSize=11;fontColor=default;labelBackgroundColor=default;endArrow=classic;" edge="1" parent="1" source="-gOCYcz9y2R_TqC1MYeh-24" target="-gOCYcz9y2R_TqC1MYeh-102">
          <mxGeometry relative="1" as="geometry" />
        </mxCell>
        <mxCell id="-gOCYcz9y2R_TqC1MYeh-24" value="" style="verticalLabelPosition=bottom;verticalAlign=top;html=1;strokeWidth=4;shape=mxgraph.flowchart.on-page_reference;plain-purple;gradientColor=none;strokeColor=#000000;fillColor=#FFFF33;" vertex="1" parent="1">
          <mxGeometry x="367.25" y="430" width="30" height="30" as="geometry" />
        </mxCell>
        <mxCell id="-gOCYcz9y2R_TqC1MYeh-132" value="" style="edgeStyle=orthogonalEdgeStyle;rounded=0;orthogonalLoop=1;jettySize=auto;html=1;strokeColor=default;strokeWidth=2;align=center;verticalAlign=middle;fontFamily=Helvetica;fontSize=11;fontColor=default;labelBackgroundColor=default;endArrow=classic;" edge="1" parent="1" source="-gOCYcz9y2R_TqC1MYeh-28" target="uWUnNED6HEl2aK5fdaIb-84">
          <mxGeometry relative="1" as="geometry" />
        </mxCell>
        <mxCell id="-gOCYcz9y2R_TqC1MYeh-28" value="" style="verticalLabelPosition=bottom;verticalAlign=top;html=1;strokeWidth=4;shape=mxgraph.flowchart.on-page_reference;plain-purple;gradientColor=none;strokeColor=#000000;fillColor=#FF3399;" vertex="1" parent="1">
          <mxGeometry x="498.5" y="504" width="30" height="30" as="geometry" />
        </mxCell>
        <mxCell id="-gOCYcz9y2R_TqC1MYeh-31" value="" style="verticalLabelPosition=bottom;verticalAlign=top;html=1;strokeWidth=4;shape=mxgraph.flowchart.on-page_reference;plain-purple;gradientColor=none;strokeColor=#000000;fillColor=#FF3399;align=center;fontFamily=Helvetica;fontSize=12;fontColor=default;" vertex="1" parent="1">
          <mxGeometry x="860" y="565" width="30" height="30" as="geometry" />
        </mxCell>
        <mxCell id="-gOCYcz9y2R_TqC1MYeh-39" value="" style="verticalLabelPosition=bottom;verticalAlign=top;html=1;strokeWidth=4;shape=mxgraph.flowchart.on-page_reference;plain-purple;gradientColor=none;strokeColor=#000000;fillColor=#FFFF33;align=center;fontFamily=Helvetica;fontSize=12;fontColor=default;" vertex="1" parent="1">
          <mxGeometry x="780" y="430" width="30" height="30" as="geometry" />
        </mxCell>
        <mxCell id="-gOCYcz9y2R_TqC1MYeh-48" value="" style="verticalLabelPosition=bottom;verticalAlign=top;html=1;strokeWidth=4;shape=mxgraph.flowchart.on-page_reference;plain-purple;gradientColor=none;strokeColor=#000000;fillColor=#FF3399;align=center;fontFamily=Helvetica;fontSize=12;fontColor=default;" vertex="1" parent="1">
          <mxGeometry x="770" y="504" width="30" height="30" as="geometry" />
        </mxCell>
        <mxCell id="-gOCYcz9y2R_TqC1MYeh-133" value="" style="edgeStyle=orthogonalEdgeStyle;rounded=0;orthogonalLoop=1;jettySize=auto;html=1;strokeColor=default;strokeWidth=2;align=center;verticalAlign=middle;fontFamily=Helvetica;fontSize=11;fontColor=default;labelBackgroundColor=default;endArrow=classic;" edge="1" parent="1" source="-gOCYcz9y2R_TqC1MYeh-50" target="-gOCYcz9y2R_TqC1MYeh-51">
          <mxGeometry relative="1" as="geometry" />
        </mxCell>
        <mxCell id="-gOCYcz9y2R_TqC1MYeh-50" value="" style="verticalLabelPosition=bottom;verticalAlign=top;html=1;strokeWidth=4;shape=mxgraph.flowchart.on-page_reference;plain-purple;gradientColor=none;strokeColor=#000000;fillColor=#FF3399;" vertex="1" parent="1">
          <mxGeometry x="640" y="504" width="30" height="30" as="geometry" />
        </mxCell>
        <mxCell id="-gOCYcz9y2R_TqC1MYeh-134" value="" style="edgeStyle=orthogonalEdgeStyle;rounded=0;orthogonalLoop=1;jettySize=auto;html=1;strokeColor=default;strokeWidth=2;align=center;verticalAlign=middle;fontFamily=Helvetica;fontSize=11;fontColor=default;labelBackgroundColor=default;endArrow=classic;" edge="1" parent="1" source="-gOCYcz9y2R_TqC1MYeh-51" target="-gOCYcz9y2R_TqC1MYeh-48">
          <mxGeometry relative="1" as="geometry" />
        </mxCell>
        <mxCell id="-gOCYcz9y2R_TqC1MYeh-51" value="" style="verticalLabelPosition=bottom;verticalAlign=top;html=1;strokeWidth=4;shape=mxgraph.flowchart.on-page_reference;plain-purple;gradientColor=none;strokeColor=#000000;fillColor=#FF3399;" vertex="1" parent="1">
          <mxGeometry x="701.75" y="504" width="30" height="30" as="geometry" />
        </mxCell>
        <mxCell id="-gOCYcz9y2R_TqC1MYeh-56" value="" style="edgeStyle=orthogonalEdgeStyle;curved=1;rounded=0;orthogonalLoop=1;jettySize=auto;html=1;endArrow=classic;endFill=0;strokeWidth=2;fontFamily=Helvetica;fontColor=default;strokeColor=default;align=center;verticalAlign=middle;fontSize=11;labelBackgroundColor=default;" edge="1" parent="1" source="uWUnNED6HEl2aK5fdaIb-77" target="-gOCYcz9y2R_TqC1MYeh-55">
          <mxGeometry relative="1" as="geometry">
            <mxPoint x="640" y="445" as="sourcePoint" />
            <mxPoint x="780" y="445" as="targetPoint" />
          </mxGeometry>
        </mxCell>
        <mxCell id="-gOCYcz9y2R_TqC1MYeh-156" value="" style="edgeStyle=orthogonalEdgeStyle;rounded=0;orthogonalLoop=1;jettySize=auto;html=1;strokeColor=default;strokeWidth=2;align=center;verticalAlign=middle;fontFamily=Helvetica;fontSize=11;fontColor=default;labelBackgroundColor=default;endArrow=classic;" edge="1" parent="1" source="-gOCYcz9y2R_TqC1MYeh-55" target="-gOCYcz9y2R_TqC1MYeh-39">
          <mxGeometry relative="1" as="geometry" />
        </mxCell>
        <mxCell id="-gOCYcz9y2R_TqC1MYeh-55" value="" style="verticalLabelPosition=bottom;verticalAlign=top;html=1;strokeWidth=4;shape=mxgraph.flowchart.on-page_reference;plain-purple;gradientColor=none;strokeColor=#000000;fillColor=#FFFF33;align=center;fontFamily=Helvetica;fontSize=12;fontColor=default;" vertex="1" parent="1">
          <mxGeometry x="700.25" y="430" width="30" height="30" as="geometry" />
        </mxCell>
        <mxCell id="-gOCYcz9y2R_TqC1MYeh-120" value="" style="edgeStyle=orthogonalEdgeStyle;rounded=0;orthogonalLoop=1;jettySize=auto;html=1;entryX=0;entryY=0.5;entryDx=0;entryDy=0;entryPerimeter=0;strokeWidth=2;strokeColor=default;align=center;verticalAlign=middle;fontFamily=Helvetica;fontSize=11;fontColor=default;labelBackgroundColor=default;endArrow=classic;" edge="1" parent="1" source="-gOCYcz9y2R_TqC1MYeh-57" target="uWUnNED6HEl2aK5fdaIb-70">
          <mxGeometry relative="1" as="geometry">
            <mxPoint x="540" y="445" as="targetPoint" />
          </mxGeometry>
        </mxCell>
        <mxCell id="-gOCYcz9y2R_TqC1MYeh-57" value="" style="verticalLabelPosition=bottom;verticalAlign=top;html=1;strokeWidth=4;shape=mxgraph.flowchart.on-page_reference;plain-purple;gradientColor=none;strokeColor=#000000;fillColor=#FFFF33;align=center;fontFamily=Helvetica;fontSize=12;fontColor=default;" vertex="1" parent="1">
          <mxGeometry x="482.25" y="430" width="30" height="30" as="geometry" />
        </mxCell>
        <mxCell id="-gOCYcz9y2R_TqC1MYeh-68" value="" style="verticalLabelPosition=bottom;verticalAlign=top;html=1;strokeWidth=4;shape=mxgraph.flowchart.on-page_reference;plain-purple;gradientColor=none;strokeColor=#000000;fillColor=#D5E8D4;" vertex="1" parent="1">
          <mxGeometry x="685.25" y="345" width="30" height="30" as="geometry" />
        </mxCell>
        <mxCell id="-gOCYcz9y2R_TqC1MYeh-71" value="Only Bug Fix" style="text;html=1;strokeColor=none;fillColor=none;align=center;verticalAlign=middle;whiteSpace=wrap;overflow=hidden;" vertex="1" parent="1">
          <mxGeometry x="605.25" y="280" width="80" height="30" as="geometry" />
        </mxCell>
        <mxCell id="-gOCYcz9y2R_TqC1MYeh-82" value="" style="endArrow=classic;html=1;rounded=0;strokeWidth=2;exitX=0.855;exitY=0.855;exitDx=0;exitDy=0;exitPerimeter=0;entryX=0.5;entryY=0;entryDx=0;entryDy=0;entryPerimeter=0;strokeColor=default;align=center;verticalAlign=middle;fontFamily=Helvetica;fontSize=11;fontColor=default;labelBackgroundColor=default;" edge="1" parent="1" source="uWUnNED6HEl2aK5fdaIb-17" target="uWUnNED6HEl2aK5fdaIb-77">
          <mxGeometry width="50" height="50" relative="1" as="geometry">
            <mxPoint x="650.25" y="425" as="sourcePoint" />
            <mxPoint x="700.25" y="375" as="targetPoint" />
          </mxGeometry>
        </mxCell>
        <mxCell id="-gOCYcz9y2R_TqC1MYeh-83" value="" style="endArrow=classic;html=1;rounded=0;strokeWidth=2;exitX=0.694;exitY=-0.011;exitDx=0;exitDy=0;exitPerimeter=0;entryX=0.686;entryY=1.011;entryDx=0;entryDy=0;entryPerimeter=0;strokeColor=default;align=center;verticalAlign=middle;fontFamily=Helvetica;fontSize=11;fontColor=default;labelBackgroundColor=default;" edge="1" parent="1" source="uWUnNED6HEl2aK5fdaIb-84" target="uWUnNED6HEl2aK5fdaIb-70">
          <mxGeometry width="50" height="50" relative="1" as="geometry">
            <mxPoint x="630.2499999999998" y="534.0000000000001" as="sourcePoint" />
            <mxPoint x="588.51" y="477.83" as="targetPoint" />
          </mxGeometry>
        </mxCell>
        <mxCell id="-gOCYcz9y2R_TqC1MYeh-84" value="" style="endArrow=classic;html=1;rounded=0;strokeWidth=2;exitX=1;exitY=0.5;exitDx=0;exitDy=0;exitPerimeter=0;entryX=0;entryY=0.5;entryDx=0;entryDy=0;entryPerimeter=0;strokeColor=default;align=center;verticalAlign=middle;fontFamily=Helvetica;fontSize=11;fontColor=default;labelBackgroundColor=default;" edge="1" parent="1" source="uWUnNED6HEl2aK5fdaIb-15" target="uWUnNED6HEl2aK5fdaIb-17">
          <mxGeometry width="50" height="50" relative="1" as="geometry">
            <mxPoint x="555" y="346" as="sourcePoint" />
            <mxPoint x="545" y="290" as="targetPoint" />
          </mxGeometry>
        </mxCell>
        <mxCell id="-gOCYcz9y2R_TqC1MYeh-85" value="" style="endArrow=classic;html=1;rounded=0;strokeWidth=2;exitX=1;exitY=0.5;exitDx=0;exitDy=0;exitPerimeter=0;entryX=0;entryY=0.5;entryDx=0;entryDy=0;entryPerimeter=0;strokeColor=default;align=center;verticalAlign=middle;fontFamily=Helvetica;fontSize=11;fontColor=default;labelBackgroundColor=default;" edge="1" parent="1" source="uWUnNED6HEl2aK5fdaIb-17" target="uWUnNED6HEl2aK5fdaIb-19">
          <mxGeometry width="50" height="50" relative="1" as="geometry">
            <mxPoint x="612.5" y="359.58" as="sourcePoint" />
            <mxPoint x="620" y="360" as="targetPoint" />
          </mxGeometry>
        </mxCell>
        <mxCell id="-gOCYcz9y2R_TqC1MYeh-88" value="" style="endArrow=classic;html=1;rounded=0;strokeWidth=2;exitX=1;exitY=0.5;exitDx=0;exitDy=0;exitPerimeter=0;entryX=0;entryY=0.5;entryDx=0;entryDy=0;entryPerimeter=0;strokeColor=default;align=center;verticalAlign=middle;fontFamily=Helvetica;fontSize=11;fontColor=default;labelBackgroundColor=default;" edge="1" parent="1" target="-gOCYcz9y2R_TqC1MYeh-68">
          <mxGeometry width="50" height="50" relative="1" as="geometry">
            <mxPoint x="658.5" y="359.58" as="sourcePoint" />
            <mxPoint x="680" y="360" as="targetPoint" />
          </mxGeometry>
        </mxCell>
        <mxCell id="-gOCYcz9y2R_TqC1MYeh-89" value="" style="endArrow=classic;html=1;rounded=0;strokeWidth=2;exitX=0.686;exitY=0.983;exitDx=0;exitDy=0;exitPerimeter=0;entryX=0.5;entryY=0;entryDx=0;entryDy=0;entryPerimeter=0;strokeColor=default;align=center;verticalAlign=middle;fontFamily=Helvetica;fontSize=11;fontColor=default;labelBackgroundColor=default;" edge="1" parent="1" source="-gOCYcz9y2R_TqC1MYeh-68" target="-gOCYcz9y2R_TqC1MYeh-55">
          <mxGeometry width="50" height="50" relative="1" as="geometry">
            <mxPoint x="715.25" y="359.58" as="sourcePoint" />
            <mxPoint x="741.75" y="360" as="targetPoint" />
          </mxGeometry>
        </mxCell>
        <mxCell id="-gOCYcz9y2R_TqC1MYeh-92" value="" style="endArrow=classic;html=1;rounded=0;strokeWidth=2;exitX=0.855;exitY=0.145;exitDx=0;exitDy=0;exitPerimeter=0;entryX=0.5;entryY=1;entryDx=0;entryDy=0;entryPerimeter=0;strokeColor=default;align=center;verticalAlign=middle;fontFamily=Helvetica;fontSize=11;fontColor=default;labelBackgroundColor=default;" edge="1" parent="1" source="-gOCYcz9y2R_TqC1MYeh-68" target="uWUnNED6HEl2aK5fdaIb-11">
          <mxGeometry width="50" height="50" relative="1" as="geometry">
            <mxPoint x="735" y="310" as="sourcePoint" />
            <mxPoint x="744" y="366" as="targetPoint" />
          </mxGeometry>
        </mxCell>
        <mxCell id="-gOCYcz9y2R_TqC1MYeh-93" value="" style="endArrow=classic;html=1;rounded=0;strokeWidth=2;exitX=0.5;exitY=0;exitDx=0;exitDy=0;exitPerimeter=0;entryX=0.145;entryY=0.855;entryDx=0;entryDy=0;entryPerimeter=0;strokeColor=default;align=center;verticalAlign=middle;fontFamily=Helvetica;fontSize=11;fontColor=default;labelBackgroundColor=default;" edge="1" parent="1" source="-gOCYcz9y2R_TqC1MYeh-39" target="uWUnNED6HEl2aK5fdaIb-106">
          <mxGeometry width="50" height="50" relative="1" as="geometry">
            <mxPoint x="801" y="411" as="sourcePoint" />
            <mxPoint x="770" y="355" as="targetPoint" />
          </mxGeometry>
        </mxCell>
        <mxCell id="-gOCYcz9y2R_TqC1MYeh-94" value="" style="endArrow=classic;html=1;rounded=0;strokeWidth=2;exitX=0.855;exitY=0.855;exitDx=0;exitDy=0;exitPerimeter=0;entryX=0.5;entryY=0;entryDx=0;entryDy=0;entryPerimeter=0;strokeColor=default;align=center;verticalAlign=middle;fontFamily=Helvetica;fontSize=11;fontColor=default;labelBackgroundColor=default;" edge="1" parent="1" source="uWUnNED6HEl2aK5fdaIb-106" target="uWUnNED6HEl2aK5fdaIb-95">
          <mxGeometry width="50" height="50" relative="1" as="geometry">
            <mxPoint x="909.5" y="414" as="sourcePoint" />
            <mxPoint x="938.5" y="355" as="targetPoint" />
          </mxGeometry>
        </mxCell>
        <mxCell id="-gOCYcz9y2R_TqC1MYeh-95" value="" style="endArrow=classic;html=1;rounded=0;strokeWidth=2;exitX=0.855;exitY=0.145;exitDx=0;exitDy=0;exitPerimeter=0;entryX=0.145;entryY=0.855;entryDx=0;entryDy=0;entryPerimeter=0;strokeColor=default;align=center;verticalAlign=middle;fontFamily=Helvetica;fontSize=11;fontColor=default;labelBackgroundColor=default;" edge="1" parent="1" source="uWUnNED6HEl2aK5fdaIb-106" target="uWUnNED6HEl2aK5fdaIb-109">
          <mxGeometry width="50" height="50" relative="1" as="geometry">
            <mxPoint x="938.5" y="363" as="sourcePoint" />
            <mxPoint x="969.5" y="240" as="targetPoint" />
          </mxGeometry>
        </mxCell>
        <mxCell id="-gOCYcz9y2R_TqC1MYeh-125" value="" style="edgeStyle=orthogonalEdgeStyle;rounded=0;orthogonalLoop=1;jettySize=auto;html=1;entryX=0;entryY=0.5;entryDx=0;entryDy=0;entryPerimeter=0;strokeColor=default;strokeWidth=2;align=center;verticalAlign=middle;fontFamily=Helvetica;fontSize=11;fontColor=default;labelBackgroundColor=default;endArrow=classic;" edge="1" parent="1" source="-gOCYcz9y2R_TqC1MYeh-30" target="-gOCYcz9y2R_TqC1MYeh-31">
          <mxGeometry relative="1" as="geometry">
            <mxPoint x="830" y="580" as="targetPoint" />
          </mxGeometry>
        </mxCell>
        <mxCell id="-gOCYcz9y2R_TqC1MYeh-30" value="" style="verticalLabelPosition=bottom;verticalAlign=top;html=1;strokeWidth=4;shape=mxgraph.flowchart.on-page_reference;plain-purple;gradientColor=none;strokeColor=#000000;fillColor=#FF3399;align=center;fontFamily=Helvetica;fontSize=12;fontColor=default;" vertex="1" parent="1">
          <mxGeometry x="705" y="565" width="30" height="30" as="geometry" />
        </mxCell>
        <mxCell id="-gOCYcz9y2R_TqC1MYeh-157" value="" style="edgeStyle=orthogonalEdgeStyle;rounded=0;orthogonalLoop=1;jettySize=auto;html=1;strokeColor=default;strokeWidth=2;align=center;verticalAlign=middle;fontFamily=Helvetica;fontSize=11;fontColor=default;labelBackgroundColor=default;endArrow=classic;" edge="1" parent="1" source="-gOCYcz9y2R_TqC1MYeh-19" target="-gOCYcz9y2R_TqC1MYeh-30">
          <mxGeometry relative="1" as="geometry" />
        </mxCell>
        <mxCell id="-gOCYcz9y2R_TqC1MYeh-19" value="" style="verticalLabelPosition=bottom;verticalAlign=top;html=1;strokeWidth=4;shape=mxgraph.flowchart.on-page_reference;plain-purple;gradientColor=none;strokeColor=#000000;fillColor=#FF3399;align=center;fontFamily=Helvetica;fontSize=12;fontColor=default;" vertex="1" parent="1">
          <mxGeometry x="575.25" y="565" width="30" height="30" as="geometry" />
        </mxCell>
        <mxCell id="-gOCYcz9y2R_TqC1MYeh-98" value="" style="endArrow=classic;html=1;rounded=0;strokeWidth=2;exitX=0.5;exitY=0;exitDx=0;exitDy=0;exitPerimeter=0;entryX=0.855;entryY=0.855;entryDx=0;entryDy=0;entryPerimeter=0;strokeColor=default;align=center;verticalAlign=middle;fontFamily=Helvetica;fontSize=11;fontColor=default;labelBackgroundColor=default;" edge="1" parent="1" source="-gOCYcz9y2R_TqC1MYeh-31" target="-gOCYcz9y2R_TqC1MYeh-39">
          <mxGeometry width="50" height="50" relative="1" as="geometry">
            <mxPoint x="970" y="600" as="sourcePoint" />
            <mxPoint x="1008" y="473" as="targetPoint" />
          </mxGeometry>
        </mxCell>
        <mxCell id="-gOCYcz9y2R_TqC1MYeh-100" value="" style="endArrow=classic;html=1;rounded=0;strokeWidth=2;exitX=0.5;exitY=1;exitDx=0;exitDy=0;exitPerimeter=0;entryX=0.145;entryY=0.145;entryDx=0;entryDy=0;entryPerimeter=0;strokeColor=default;align=center;verticalAlign=middle;fontFamily=Helvetica;fontSize=11;fontColor=default;labelBackgroundColor=default;" edge="1" parent="1" source="-gOCYcz9y2R_TqC1MYeh-24" target="-gOCYcz9y2R_TqC1MYeh-23">
          <mxGeometry width="50" height="50" relative="1" as="geometry">
            <mxPoint x="477.25" y="742" as="sourcePoint" />
            <mxPoint x="515.25" y="615" as="targetPoint" />
          </mxGeometry>
        </mxCell>
        <mxCell id="-gOCYcz9y2R_TqC1MYeh-101" value="" style="endArrow=classic;html=1;rounded=0;strokeWidth=2;exitX=0.5;exitY=1;exitDx=0;exitDy=0;exitPerimeter=0;entryX=0.5;entryY=0;entryDx=0;entryDy=0;entryPerimeter=0;strokeColor=default;align=center;verticalAlign=middle;fontFamily=Helvetica;fontSize=11;fontColor=default;labelBackgroundColor=default;" edge="1" parent="1" source="-gOCYcz9y2R_TqC1MYeh-11" target="-gOCYcz9y2R_TqC1MYeh-57">
          <mxGeometry width="50" height="50" relative="1" as="geometry">
            <mxPoint x="494.5" y="345" as="sourcePoint" />
            <mxPoint x="532.5" y="218" as="targetPoint" />
          </mxGeometry>
        </mxCell>
        <mxCell id="-gOCYcz9y2R_TqC1MYeh-121" value="" style="edgeStyle=orthogonalEdgeStyle;rounded=0;orthogonalLoop=1;jettySize=auto;html=1;strokeColor=default;strokeWidth=2;align=center;verticalAlign=middle;fontFamily=Helvetica;fontSize=11;fontColor=default;labelBackgroundColor=default;endArrow=classic;" edge="1" parent="1" source="-gOCYcz9y2R_TqC1MYeh-102" target="-gOCYcz9y2R_TqC1MYeh-57">
          <mxGeometry relative="1" as="geometry" />
        </mxCell>
        <mxCell id="-gOCYcz9y2R_TqC1MYeh-102" value="" style="verticalLabelPosition=bottom;verticalAlign=top;html=1;strokeWidth=4;shape=mxgraph.flowchart.on-page_reference;plain-purple;gradientColor=none;strokeColor=#000000;fillColor=#FFFF33;align=center;fontFamily=Helvetica;fontSize=12;fontColor=default;" vertex="1" parent="1">
          <mxGeometry x="428.5" y="430" width="30" height="30" as="geometry" />
        </mxCell>
        <mxCell id="-gOCYcz9y2R_TqC1MYeh-104" value="" style="endArrow=classic;html=1;rounded=0;strokeWidth=2;exitX=0.855;exitY=0.855;exitDx=0;exitDy=0;exitPerimeter=0;entryX=0;entryY=0.5;entryDx=0;entryDy=0;entryPerimeter=0;strokeColor=default;align=center;verticalAlign=middle;fontFamily=Helvetica;fontSize=11;fontColor=default;labelBackgroundColor=default;" edge="1" parent="1" source="-gOCYcz9y2R_TqC1MYeh-24" target="uWUnNED6HEl2aK5fdaIb-82">
          <mxGeometry width="50" height="50" relative="1" as="geometry">
            <mxPoint x="416.25" y="460" as="sourcePoint" />
            <mxPoint x="450.25" y="519" as="targetPoint" />
          </mxGeometry>
        </mxCell>
        <mxCell id="-gOCYcz9y2R_TqC1MYeh-106" value="" style="endArrow=classic;html=1;rounded=0;strokeWidth=2;exitX=0.75;exitY=1.039;exitDx=0;exitDy=0;exitPerimeter=0;entryX=0.145;entryY=0.145;entryDx=0;entryDy=0;entryPerimeter=0;strokeColor=default;align=center;verticalAlign=middle;fontFamily=Helvetica;fontSize=11;fontColor=default;labelBackgroundColor=default;" edge="1" parent="1" source="uWUnNED6HEl2aK5fdaIb-77" target="-gOCYcz9y2R_TqC1MYeh-50">
          <mxGeometry width="50" height="50" relative="1" as="geometry">
            <mxPoint x="630.25" y="487.5" as="sourcePoint" />
            <mxPoint x="674.25" y="550.5" as="targetPoint" />
          </mxGeometry>
        </mxCell>
        <mxCell id="-gOCYcz9y2R_TqC1MYeh-107" value="" style="endArrow=classic;html=1;rounded=0;strokeWidth=2;exitX=0.855;exitY=0.145;exitDx=0;exitDy=0;exitPerimeter=0;strokeColor=default;align=center;verticalAlign=middle;fontFamily=Helvetica;fontSize=11;fontColor=default;labelBackgroundColor=default;" edge="1" parent="1" source="-gOCYcz9y2R_TqC1MYeh-48">
          <mxGeometry width="50" height="50" relative="1" as="geometry">
            <mxPoint x="800" y="514" as="sourcePoint" />
            <mxPoint x="789" y="460" as="targetPoint" />
          </mxGeometry>
        </mxCell>
        <mxCell id="-gOCYcz9y2R_TqC1MYeh-108" value="" style="endArrow=classic;html=1;rounded=0;strokeWidth=2;strokeColor=default;align=center;verticalAlign=middle;fontFamily=Helvetica;fontSize=11;fontColor=default;labelBackgroundColor=default;entryX=0.5;entryY=1;entryDx=0;entryDy=0;entryPerimeter=0;" edge="1" parent="1" target="uWUnNED6HEl2aK5fdaIb-15">
          <mxGeometry width="50" height="50" relative="1" as="geometry">
            <mxPoint x="550" y="430" as="sourcePoint" />
            <mxPoint x="520" y="380" as="targetPoint" />
          </mxGeometry>
        </mxCell>
        <mxCell id="-gOCYcz9y2R_TqC1MYeh-109" value="" style="endArrow=classic;html=1;rounded=0;strokeWidth=2;exitX=0.5;exitY=1;exitDx=0;exitDy=0;exitPerimeter=0;entryX=0.5;entryY=0;entryDx=0;entryDy=0;entryPerimeter=0;strokeColor=default;align=center;verticalAlign=middle;fontFamily=Helvetica;fontSize=11;fontColor=default;labelBackgroundColor=default;" edge="1" parent="1" source="uWUnNED6HEl2aK5fdaIb-10" target="uWUnNED6HEl2aK5fdaIb-69">
          <mxGeometry width="50" height="50" relative="1" as="geometry">
            <mxPoint x="292.25" y="280" as="sourcePoint" />
            <mxPoint x="407.25" y="410" as="targetPoint" />
          </mxGeometry>
        </mxCell>
        <mxCell id="-gOCYcz9y2R_TqC1MYeh-110" value="" style="endArrow=classic;html=1;rounded=0;strokeWidth=2;exitX=0.925;exitY=0.8;exitDx=0;exitDy=0;exitPerimeter=0;entryX=0.145;entryY=0.145;entryDx=0;entryDy=0;entryPerimeter=0;strokeColor=default;align=center;verticalAlign=middle;fontFamily=Helvetica;fontSize=11;fontColor=default;labelBackgroundColor=default;" edge="1" parent="1" source="uWUnNED6HEl2aK5fdaIb-10" target="-gOCYcz9y2R_TqC1MYeh-11">
          <mxGeometry width="50" height="50" relative="1" as="geometry">
            <mxPoint x="295.25" y="226" as="sourcePoint" />
            <mxPoint x="329.25" y="285" as="targetPoint" />
          </mxGeometry>
        </mxCell>
        <mxCell id="-gOCYcz9y2R_TqC1MYeh-111" value="" style="endArrow=classic;html=1;rounded=0;strokeWidth=2;exitX=1;exitY=0.333;exitDx=0;exitDy=0;exitPerimeter=0;entryX=0.145;entryY=0.855;entryDx=0;entryDy=0;entryPerimeter=0;strokeColor=default;align=center;verticalAlign=middle;fontFamily=Helvetica;fontSize=11;fontColor=default;labelBackgroundColor=default;" edge="1" parent="1" source="-gOCYcz9y2R_TqC1MYeh-11" target="-gOCYcz9y2R_TqC1MYeh-14">
          <mxGeometry width="50" height="50" relative="1" as="geometry">
            <mxPoint x="498.5" y="246" as="sourcePoint" />
            <mxPoint x="580.5" y="300" as="targetPoint" />
          </mxGeometry>
        </mxCell>
        <mxCell id="-gOCYcz9y2R_TqC1MYeh-112" value="" style="endArrow=classic;html=1;rounded=0;strokeWidth=2;exitX=1;exitY=0.5;exitDx=0;exitDy=0;exitPerimeter=0;entryX=0;entryY=0.5;entryDx=0;entryDy=0;entryPerimeter=0;strokeColor=default;align=center;verticalAlign=middle;fontFamily=Helvetica;fontSize=11;fontColor=default;labelBackgroundColor=default;" edge="1" parent="1" source="-gOCYcz9y2R_TqC1MYeh-39" target="uWUnNED6HEl2aK5fdaIb-95">
          <mxGeometry width="50" height="50" relative="1" as="geometry">
            <mxPoint x="931" y="514" as="sourcePoint" />
            <mxPoint x="870" y="450" as="targetPoint" />
          </mxGeometry>
        </mxCell>
      </root>
    </mxGraphModel>
  </diagram>
</mxfile>
